<svg xmlns="http://www.w3.org/2000/svg" xmlns:xlink="http://www.w3.org/1999/xlink" width="636.445" height="194.659" viewBox="0 0 636.445 194.659">
  <defs>
    <linearGradient id="linear-gradient" y1="1" x2="1.097" y2="-0.414" gradientUnits="objectBoundingBox">
      <stop offset="0" stop-color="#eb317d"/>
      <stop offset="1" stop-color="#09a4df"/>
    </linearGradient>
  </defs>
  <path id="logo" d="M5.033,115.779V64.99H0v-22.4H5.033V-7.621H75.3q20.131,0,20.131,15.642v92.5q0,15.256-20.131,15.256ZM55.166,23.664a.342.342,0,0,0-.387-.386H44.327V42.589H49.94v22.4H44.327V85.074H54.779a.342.342,0,0,0,.387-.386Zm99.88,0a.342.342,0,0,0-.387-.386h-9.1a.342.342,0,0,0-.387.386V38.727h9.872Zm0,92.115V69.625h-9.872v46.154H104.913V8.022q0-15.642,20.131-15.642h50.134q20.131,0,20.131,15.642V115.779ZM183.5-40.45a73.082,73.082,0,0,1-2.71,8.98,25.817,25.817,0,0,1-5.42,8.69,28.127,28.127,0,0,1-9.872,6.566q-6.194,2.607-16.066,2.607-8.9,0-14.808-2.607a29.45,29.45,0,0,1-9.582-6.469,27.481,27.481,0,0,1-5.613-8.594,55.468,55.468,0,0,1-2.9-9.173h20.518Q138.4-27.318,149.82-27.318q5.807,0,9.1-2.993t4.065-10.138Zm92.137,194.659q-20.324,0-20.324-15.256V23.664a.342.342,0,0,0-.387-.386h-9.1a.342.342,0,0,0-.387.386v92.115H205.18V-7.621h40.262V.3q10.259-7.918,30-7.918,20.131,0,20.131,15.642v115.1a.342.342,0,0,0,.387.386h99.493v30.705Zm49.553-38.43q-20.131,0-20.131-15.256V8.022q0-15.642,20.131-15.642h50.134q20.131,0,20.131,15.642V28.878H355.194V23.664a.342.342,0,0,0-.387-.386h-9.1a.342.342,0,0,0-.387.386V84.688a.342.342,0,0,0,.387.386h9.485v-44.8h40.262v75.508Zm175.371,0L487.4,82.757v33.022H448.493V-7.621H487.4V23.857l12-31.478h42.391l-27.68,59.479,28.841,63.921Zm70.845,0V71.749q-25.357,0-25.357-25.1V-7.621h40.262V42.4a.342.342,0,0,0,.387.386h9.1a.342.342,0,0,0,.387-.386V-7.621h40.262V46.644q0,25.1-24.776,25.1v44.03ZM569.472-13.607V-27.125L624.251-40.45v20.47Z" transform="translate(0 40.45)" fill="url(#linear-gradient)"/>
</svg>
